<svg version="1.1" viewBox="0.0 0.0 35.0 35.0" fill="none" stroke="none" stroke-linecap="square" stroke-miterlimit="10" xmlns:xlink="http://www.w3.org/1999/xlink" xmlns="http://www.w3.org/2000/svg"><clipPath id="p.0"><path d="m0 0l35.0 0l0 35.0l-35.0 0l0 -35.0z" clip-rule="nonzero"/></clipPath><g clip-path="url(#p.0)"><path fill="#000000" fill-opacity="0.0" d="m0 0l35.0 0l0 35.0l-35.0 0z" fill-rule="evenodd"/><path fill="#1d3879" d="m5.9732614 17.499344l0 0c0 -6.366495 5.1610637 -11.527559 11.527559 -11.527559l0 0c3.0572987 0 5.989378 1.2145076 8.151215 3.3763437c2.1618366 2.1618366 3.3763447 5.093917 3.3763447 8.151216l0 0c0 6.366495 -5.161064 11.527559 -11.527559 11.527559l0 0c-6.366495 0 -11.527559 -5.161064 -11.527559 -11.527559z" fill-rule="evenodd"/><path fill="#6edc88" d="m11.516941 19.419104l0 0c-0.19221687 -0.14331245 -0.23004723 -0.41394043 -0.084495544 -0.6044674l1.0541458 -1.3798733l0 0c0.0698967 -0.09149361 0.17359829 -0.15190125 0.28829288 -0.16793442c0.11469364 -0.016031265 0.23098564 0.013624191 0.32329082 0.082445145l4.680626 3.4897404c0.19221687 0.14331245 0.23004723 0.41394043 0.084495544 0.6044674l-1.0541458 1.3798733c-0.14555168 0.19052696 -0.41936684 0.22880173 -0.6115837 0.08548927z" fill-rule="evenodd"/><path fill="#6edc88" d="m21.484343 12.455277l0 0c0.14336586 -0.19220638 0.41407967 -0.23004818 0.6046562 -0.08452225l1.3802357 1.0539589l0 0c0.0915184 0.0698843 0.15193939 0.17357159 0.16797066 0.28825378c0.016031265 0.1146822 -0.013641357 0.2309637 -0.08248901 0.32326412l-6.62261 8.878702c-0.14336586 0.19220734 -0.41407967 0.23004913 -0.6046562 0.084524155l-1.3802366 -1.0539608c-0.19057655 -0.14552498 -0.2288475 -0.41931152 -0.08548164 -0.61151695z" fill-rule="evenodd"/></g></svg>