<svg version="1.1" viewBox="0.0 0.0 35.0 35.0" fill="none" stroke="none" stroke-linecap="square" stroke-miterlimit="10" xmlns:xlink="http://www.w3.org/1999/xlink" xmlns="http://www.w3.org/2000/svg"><clipPath id="p.0"><path d="m0 0l35.0 0l0 35.0l-35.0 0l0 -35.0z" clip-rule="nonzero"/></clipPath><g clip-path="url(#p.0)"><path fill="#000000" fill-opacity="0.0" d="m0 0l35.0 0l0 35.0l-35.0 0z" fill-rule="evenodd"/><path fill="#a2d2c9" d="m5.9732614 17.499344l0 0c0 -6.366495 5.1610637 -11.527559 11.527559 -11.527559l0 0c3.0572987 0 5.989378 1.2145076 8.151215 3.3763437c2.1618366 2.1618366 3.3763447 5.093917 3.3763447 8.151216l0 0c0 6.366495 -5.161064 11.527559 -11.527559 11.527559l0 0c-6.366495 0 -11.527559 -5.161064 -11.527559 -11.527559z" fill-rule="evenodd"/><path fill="#ff005f" d="m13.262484 15.252339l0 0c-0.18410492 -0.18410397 -0.1829338 -0.48141575 0.0026140213 -0.66406536l1.3438187 -1.3228216l0 0c0.0891037 -0.08771038 0.2096777 -0.13670826 0.33519936 -0.13621426c0.1255207 4.940033E-4 0.2457056 0.050439835 0.33411598 0.13885021l6.4199133 6.4199133c0.18410492 0.18410492 0.1829338 0.4814167 -0.002614975 0.6640644l-1.3438187 1.3228226c-0.18554688 0.18264961 -0.48521042 0.18146896 -0.66931343 -0.0026359558z" fill-rule="evenodd"/><path fill="#ff005f" d="m15.283481 21.719498l0 0c-0.18410397 0.18410492 -0.4814167 0.1829338 -0.66406536 -0.002614975l-1.3228216 -1.3438187l0 0c-0.087711334 -0.0891037 -0.13670921 -0.20967674 -0.13621521 -0.33519936c4.9495697E-4 -0.1255207 0.05044079 -0.24570465 0.13885021 -0.33411598l6.4199142 -6.4199123c0.18410301 -0.18410492 0.4814167 -0.1829338 0.6640644 0.0026140213l1.3228226 1.3438187c0.1826477 0.18554783 0.18146896 0.48521042 -0.0026359558 0.66931534z" fill-rule="evenodd"/></g></svg>